<svg xmlns="http://www.w3.org/2000/svg" viewBox="0 0 240 70">
  <defs>
    <linearGradient id="gradient" x1="0%" y1="0%" x2="100%" y2="0%">
      <stop offset="0%" stop-color="#b0bce3" />
      <stop offset="50%" stop-color="#465f9f" />
      <stop offset="100%" stop-color="#1e3a8a" />
    </linearGradient>
    <style>
      .tagline {
        font-family: 'Arial', sans-serif;
        font-weight: normal;
        font-size: 11px;
        fill: #1d1d1b;
      }
    </style>
  </defs>
  
  <!-- Original Collaboard Logo (scaled and positioned) -->
  <g transform="translate(1, 10) scale(1.8)">
    <g id="Layer_2" data-name="Layer 2">
      <g id="Layer_1-2" data-name="Layer 1">
        <path d="M30.66,7.17A7.17,7.17,0,1,1,23.5,0a7.17,7.17,0,0,1,7.16,7.17" fill="#1d1d1b"/>
        <path d="M14.32,23.5a7.16,7.16,0,1,1-7.16-7.16,7.16,7.16,0,0,1,7.16,7.16" fill="#1d1d1b"/>
        <path d="M28.63,18.07a6.78,6.78,0,0,0-4.42-1.56,1.79,1.79,0,0,1-.39,0c-.21,0-.42,0-.64,0a9,9,0,0,1-9-9,8.68,8.68,0,0,1,.06-.9,6.89,6.89,0,0,0-1.37-4.29A7.47,7.47,0,1,0,2.3,12.86,6.87,6.87,0,0,0,6.59,14.3h.09a7.14,7.14,0,0,1,.8,0,8.91,8.91,0,0,1,8.91,8.91c0,.15,0,.3,0,.44a3.21,3.21,0,0,1,0,.36,6.78,6.78,0,0,0,1.42,4.4,7.4,7.4,0,0,0,5.36,2.28,7.48,7.48,0,0,0,7.48-7.48,7.4,7.4,0,0,0-2-5.11" fill="url(#gradient)"/>
        <!-- ... (other paths from original logo) ... -->
      </g>
    </g>
  </g>

  <!-- Text "Collaboard" with gradient -->
  <text x="148" y="40" font-family="Arial" font-size="30" font-weight="bold" text-anchor="middle" fill="url(#gradient)">Collaboard</text>

  <!-- Tagline -->
  <text x="148" y="60" class="tagline" text-anchor="middle">Where thoughts take shape</text>
</svg>